<svg width="512" height="206" viewBox="0 0 512 206" fill="none" xmlns="http://www.w3.org/2000/svg">
<path d="M23.0739 2C17.1178 13.9122 -10.2462 50.6104 8.42749 61.948C15.6822 66.3527 34.2539 57.3954 41.6373 55.6467C67.3631 49.5537 92.0277 31.9001 119.127 33.6771C187.704 38.1739 88.594 148.909 157.957 160.726C200.847 168.033 243.999 144.83 283.984 132.966C293.835 130.043 330.964 116.291 340.185 128.027C353.515 144.992 345.684 174.027 366.583 188.656C386.239 202.416 412.791 189.599 433.854 188.997C449.013 188.564 454.831 198.276 469.108 202.621C485.215 207.524 495.578 198.194 510.492 198.194" stroke="#5EBC4E" stroke-width="3" stroke-linecap="round"/>
</svg>
