<svg width="353" height="228" viewBox="0 0 353 228" fill="none" xmlns="http://www.w3.org/2000/svg">
<path d="M114.473 120.402C118.269 120.402 106.617 119.54 103.496 117.421C97.2076 113.152 91.1552 107.003 85.5946 101.853C72.8372 90.0374 63.0272 75.7783 61.3606 57.7999C60.3779 47.1987 58.2364 36.186 58.2364 25.6708C58.2364 23.1866 60.0276 16.4615 58.2364 18.2181C55.1821 21.2134 53.0269 26.9168 49.7925 30.3908C41.5007 39.2967 33.4076 49.1998 29.6961 60.7809C27.5371 67.5174 21.8469 72.9493 19.9012 80.1577C18.3007 86.0872 15.6792 91.5415 15.6792 97.7128C15.6792 108.71 13.8262 118.327 11.4573 129.014C9.3334 138.595 9.16049 148.437 5.79987 157.665C1.92174 168.314 2.00013 180.652 2.00013 191.947C2.00013 200.721 7.7015 209.282 9.68406 218.031C10.18 220.22 13.1612 228.77 14.2438 223.993C15.6575 217.754 17.7197 211.642 18.6346 205.362C20.1117 195.222 24.8695 191.945 29.6961 183.004C31.1175 180.371 33.9722 174.103 38.1399 177.373C41.7183 180.18 40.8763 184.081 43.3752 187.144C44.7303 188.805 47.8128 197.247 50.2991 197.247C50.8977 197.247 49.117 184.015 49.117 182.259C49.117 172.954 50.4587 163.987 59.0808 159.156C65.1802 155.738 74.9868 148.412 79.1772 156.174C79.8179 157.361 86.1124 164.947 87.1145 164.455C90.6292 162.732 93.4026 151.447 96.2339 147.977C98.3679 145.361 105.753 148.231 108.393 144.996C109.498 143.641 118.535 142.76 120.552 142.76" stroke="#5EBC4E" stroke-width="4" stroke-linecap="round"/>
<path d="M238.527 104.473C234.731 104.473 246.383 103.611 249.504 101.492C255.792 97.2225 261.845 91.0742 267.405 85.9239C280.163 74.1082 289.973 59.8491 291.639 41.8707C292.622 31.2695 294.764 20.2568 294.764 9.74156C294.764 7.25736 292.972 0.53234 294.764 2.28894C297.818 5.28421 299.973 10.9876 303.207 14.4616C311.499 23.3675 319.592 33.2706 323.304 44.8517C325.463 51.5882 331.153 57.0201 333.099 64.2285C334.699 70.158 337.321 75.6123 337.321 81.7836C337.321 92.7805 339.174 102.398 341.543 113.085C343.667 122.666 343.84 132.508 347.2 141.736C351.078 152.385 351 164.723 351 176.018C351 184.792 345.298 193.353 343.316 202.102C342.82 204.291 339.839 212.841 338.756 208.064C337.342 201.825 335.28 195.713 334.365 189.433C332.888 179.293 328.13 176.015 323.304 167.075C321.883 164.442 319.028 158.174 314.86 161.444C311.282 164.251 312.124 168.152 309.625 171.215C308.27 172.876 305.187 181.318 302.701 181.318C302.102 181.318 303.883 168.086 303.883 166.329C303.883 157.025 302.541 148.058 293.919 143.226C287.82 139.808 278.013 132.483 273.823 140.245C273.182 141.432 266.888 149.017 265.886 148.526C262.371 146.803 259.597 135.518 256.766 132.047C254.632 129.431 247.247 132.302 244.607 129.066C243.502 127.711 234.465 126.831 232.448 126.831" stroke="#5EBC4E" stroke-width="4" stroke-linecap="round"/>
</svg>
