<svg width="626" height="627" viewBox="0 0 626 627" fill="none" xmlns="http://www.w3.org/2000/svg">
<path d="M176.529 460.071L179.245 508.929L186.035 537.429V565.929L181.282 581.536L177.887 597.143L181.282 616.143L191.466 627L207.761 616.143L211.835 597.143V565.929V546.929L224.056 503.5L237.636 508.929L258.004 536.071L264.794 565.929L258.004 580.857V597.143L271.583 617.5L294.668 597.143V565.929L286.521 536.071L271.583 488.571L253.931 449.214L241.709 431.571L258.004 386.786L277.015 396.286L294.668 401.714H317.753L361.206 394.929L367.996 412.571L361.206 437L344.911 460.071L342.195 508.929V536.071L348.985 571.357V597.143L358.49 612.071L372.069 621.571L385.649 612.071L389.722 594.429L378.859 571.357L372.069 536.071V508.929L378.859 494L395.154 460.071L408.733 473.643L410.091 488.571L420.954 508.929L427.744 536.071L430.46 560.5L427.744 582.214L412.807 599.857V621.571L425.028 627L441.323 625.643L463.05 594.429L465.766 565.929L461.692 534.714L456.26 489.929L465.766 453.286L483.419 412.571L482.061 374.571L496.998 386.786L502.43 404.429L511.935 413.929L516.009 440.619H539.093L554.03 449.214L532.304 470.929L562.178 457.357V439.714L574.399 431.571L566.252 422.071V401.714L585.262 418L590.694 409.857L611.063 422.071V407.143L621.926 399L626 389.5L623.284 378.643L619.21 352.857L585.262 327.071L560.82 314.857L524.156 313.5L492.924 301.286H469.839L453.544 313.5L448.113 301.286L441.323 272.786V253.786H464.408L496.998 272.786L505.145 248.357L501.072 230.036L487.492 213.071L490.208 195.429L517.367 192.714L541.809 200.857V177.786L496.998 133L460.334 111.286L492.924 101.786V85.5L477.987 74.6429L425.028 46.1429L385.649 33.9286H348.985L342.195 17.6429V0L294.668 19L237.636 74.6429L209.119 119.429L196.898 138.429L192.824 162.857L176.529 157.429L154.803 175.071L139.866 200.857L129.002 179.143L112.707 172.357V161.5L103.202 146.571L95.0542 157.429L84.1909 162.857L70.6117 146.571H51.6009V160.143L36.6638 154.714L47.5271 175.071L33.9479 184.571L31.2321 200.857L14.9371 202.214L9.50542 211.714L0 219.857L13.5792 228L21.7267 252.429L43.4534 271.429V278.214L27.1584 280.929L21.7267 290.429L24.4425 298.571H42.0954L43.4534 318.929L55.6746 335.214L61.1063 373.214L70.6117 374.571L82.833 377.286L95.0542 371.857L100.486 352.857V327.071L119.497 298.571L135.792 317.571L148.013 321.643L139.866 347.429V373.214L152.087 394.929L148.013 412.571L176.529 460.071Z" fill="#70507D" fill-opacity="0.31"/>
</svg>
