<svg width="222" height="230" viewBox="0 0 222 230" fill="none" xmlns="http://www.w3.org/2000/svg">
<path d="M14.0394 138.255C18.4916 129.59 20.3446 120.257 24.8998 111.391C28.339 104.698 34.3314 99.9687 38.3841 93.5766C43.5365 85.4498 48.2356 77.4243 52.6673 68.7987C54.8811 64.49 56.4475 60.7232 60.3742 58.0931C63.6657 55.8885 71.7576 51.6841 73.3357 48.6124C78.5732 38.4185 82.7774 27.3727 88.0908 17.0311C88.7321 15.7829 92.8878 6.38703 94.0659 6.9923C94.4924 7.21146 97.858 18.2749 98.2081 19.6075C99.7126 25.3335 91.6413 35.888 88.9736 41.0804C81.8623 54.9212 64.6118 61.9619 63.6783 78.2248C63.4645 81.9513 61.4656 85.87 63.2146 89.7844C64.142 91.8602 65.0224 98.6424 65.1605 101.107C65.4069 105.502 65.388 107.366 64.5125 111.753C64.4245 112.194 66.5062 115.033 67.0067 115.328C70.2513 117.245 69.006 114.429 71.2581 113.416C76.5374 111.042 80.0841 97.7455 83.0867 92.6208C85.3315 88.7892 90.0579 87.6416 92.2728 83.3306C93.314 81.3042 98.2896 74.2016 97.9325 75.178C96.3404 79.5319 99.6528 84.0046 98.5914 88.0517C97.6166 91.7686 96.2802 95.1094 94.7245 98.6001C93.0179 102.429 93.5768 106.614 93.7023 110.61C93.8327 114.761 91.6683 118.67 92.6802 122.62C93.5889 126.168 105.436 142.904 109.369 135.947C115.944 124.315 117.672 111.198 123.861 99.1508C126.838 93.357 131.771 89.482 134.748 83.6882C136.828 79.6387 141.101 71.0285 144.529 68.1495C147.681 65.5026 149.568 62.5469 152.857 59.8931C156.769 56.7372 160 60.7902 164.042 57.5288C165.453 56.3908 171.758 48.6276 169.322 56.6366C167.58 62.3645 165.274 67.2208 162.495 72.6282C157.811 81.7461 153.126 90.8639 148.441 99.9818C145.189 106.312 141.936 112.643 138.684 118.974C136.349 123.517 136.769 128.427 134.251 133.328C129.502 142.57 129.389 147.379 139.161 152.4C140.53 153.104 146.119 159.829 148.14 157.669C150.75 154.88 151.932 149.985 153.867 146.683C156.042 142.971 161.95 142.403 164.216 137.991C166.115 134.296 168.013 130.602 169.911 126.907C172.063 122.72 172.748 119.737 176.949 123.231C179.527 125.375 182.086 128.977 180.385 132.288C176.389 140.067 172.393 147.845 168.396 155.623C164.237 163.718 164.715 172.674 163.11 181.5C161.817 188.61 158.835 194.275 155.562 200.645C151.314 208.913 149.71 215.834 140.591 217.695C135.752 218.683 118.983 202.831 128.577 215.947C129.461 217.155 123.726 213.783 122.56 213.183C116.575 210.108 111.084 206.29 105.348 202.783C96.5408 197.399 87.8254 192.388 78.5654 187.63C62.6172 179.436 46.6691 171.242 30.721 163.048C24.1895 159.692 14.3995 156.62 11.3637 149.825C8.85208 144.204 16.7838 132.914 19.4345 127.755" stroke="#2B2433" stroke-linecap="round"/>
<path d="M47.5057 130.379C50.2915 131.44 52.885 129.505 55.6716 130.233C60.3012 131.442 55.5547 135.117 56.0089 137.37C56.7905 141.248 53.2395 147.85 51.3506 151.526C48.611 156.859 41.0209 150.425 36.8409 151.773C34.3856 152.565 40.1478 140.689 41.9107 138.565C43.516 136.631 51.4567 129.46 52.7779 130.139C59.4761 133.58 63.1982 134.193 59.373 141.638C56.7806 146.684 52.6377 150.364 46.7426 150.634C43.8844 150.764 31.8907 152.182 35.0225 146.087" stroke="#2B2433" stroke-linecap="round"/>
<path d="M79.2813 165.877C81.409 161.736 81.7125 158.282 83.8123 154.195C86.5633 148.841 99.9257 156.164 101.919 160.467C103.935 164.816 107.595 168.638 103.46 173.056C101.103 175.575 92.8215 172.895 89.7378 172.724C86.8233 172.562 77.402 173.855 76.1115 169.82C74.8396 165.842 75.5092 159.455 79.4848 159.755C85.626 160.218 91.0682 165.228 97.3096 165.144C103.223 165.066 96.6511 173.086 93.2467 173.052" stroke="#2B2433" stroke-linecap="round"/>
<path d="M127.526 195.088C123.51 191.749 121.513 176.437 130.628 180.461C134.123 182.003 138.197 182.908 136.112 186.965C134.779 189.561 134.381 193.197 132.78 196.313C128.502 204.64 121.452 190.352 123.54 185.667C125.402 181.49 130.035 184.58 132.903 186.054C137.646 188.49 136.212 189.634 133.979 193.98" stroke="#2B2433" stroke-linecap="round"/>
<path d="M178.058 131.093C173.262 140.427 168.466 149.761 163.671 159.095C161.532 163.257 159.859 166.711 159.042 170.808C158.499 173.529 160.407 175.735 159.698 178.437C157.365 187.334 148.122 212.743 138.141 213.078C134.927 213.186 128.184 214.418 125.552 213.246C120.225 210.874 114.954 208.761 108.883 209.106C89.5233 210.205 79.0607 191.404 63.7889 182.988C57.1799 179.346 50.6602 175.195 44.0869 171.39C39.4097 168.683 32.6935 165.059 28.5266 161.593C23.769 157.636 18.2227 155.152 12.6999 152.315C6.23894 148.995 13.6668 144.297 16.2337 139.711C26.884 120.681 37.2482 101.673 47.2037 82.2959C50.9658 74.9737 53.59 67.003 57.4629 59.4651C63.3135 48.0779 73.3042 40.7482 79.902 29.9474C83.0151 24.8511 89.0544 9.15161 96.2445 9.75059C99.868 10.0525 84.3899 38.5498 83.1195 41.0224C77.9494 51.0852 73.1154 56.0505 72.0004 67.7536C71.2641 75.4822 63.1179 86.8326 60.2348 94.1527C56.6566 103.238 61.4004 109.499 68.7875 113.294C74.3782 116.167 74.5778 112.045 77.1235 107.09C79.9147 101.658 81.4763 95.7554 84.3188 90.2228C87.1537 84.7051 91.9606 71.4222 98.3794 81.3068C100.28 84.2338 90.712 96.2759 89.7991 99.7567C88.0679 106.358 94.0675 113.905 97.5387 118.89C98.728 120.598 101.299 123.891 101.818 125.513C102.675 128.192 100.438 133.98 103.648 135.629C111.673 139.752 118.559 115.591 119.603 112.53C124.909 96.9606 133.326 83.1184 145.008 71.6727C147.596 69.1362 150.956 66.9063 153.968 64.8885C157.572 62.475 157.832 59.4445 160.541 56.5495C165.407 51.3503 161.133 63.8273 160.371 65.3105C156.397 73.0456 152.423 80.7806 148.449 88.5157C139.314 106.294 135.303 121.071 134.363 140.268C134.051 146.629 138.159 150.411 143.252 153.028C151.836 157.438 155.044 156.646 159.254 147.649C161.884 142.03 162.765 124.428 171.243 124.315C181.775 124.174 172.762 133.269 172.698 138.662" stroke="#2B2433" stroke-linecap="round"/>
</svg>
